<?xml version="1.0" encoding="UTF-8" standalone="no"?>
<!DOCTYPE svg PUBLIC "-//W3C//DTD SVG 1.1//EN"
 "http://www.w3.org/Graphics/SVG/1.1/DTD/svg11.dtd">
<!-- Generated by graphviz version 2.40.1 (20161225.0304)
 -->
<!-- Title: G Pages: 1 -->
<svg width="662pt" height="996pt"
 viewBox="0.00 0.00 661.84 996.00" xmlns="http://www.w3.org/2000/svg" xmlns:xlink="http://www.w3.org/1999/xlink">
<g id="graph0" class="graph" transform="scale(1 1) rotate(0) translate(4 992)">
<title>G</title>
<polygon fill="#ffffff" stroke="transparent" points="-4,4 -4,-992 657.8391,-992 657.8391,4 -4,4"/>
<g id="clust1" class="cluster">
<title>cluster_Global</title>
<path fill="none" stroke="#c0c0c0" d="M20,-206C20,-206 633.8391,-206 633.8391,-206 639.8391,-206 645.8391,-212 645.8391,-218 645.8391,-218 645.8391,-968 645.8391,-968 645.8391,-974 639.8391,-980 633.8391,-980 633.8391,-980 20,-980 20,-980 14,-980 8,-974 8,-968 8,-968 8,-218 8,-218 8,-212 14,-206 20,-206"/>
<text text-anchor="middle" x="326.9196" y="-967.2" font-family="Times,serif" font-size="11.00" fill="#c0c0c0">Global</text>
</g>
<!-- \\Dalenys_Api_DirectLinkClient -->
<g id="node1" class="node">
<title>\\Dalenys_Api_DirectLinkClient</title>
<polygon fill="none" stroke="#000000" points="583.8391,-952 377.8391,-952 377.8391,-916 583.8391,-916 583.8391,-952"/>
<text text-anchor="middle" x="480.8391" y="-931.2" font-family="Courier,monospace" font-size="11.00" fill="#000000">Dalenys_Api_DirectLinkClient</text>
</g>
<!-- \\Dalenys_Api_Batch_Exception_InvalidBatchFile -->
<g id="node2" class="node">
<title>\\Dalenys_Api_Batch_Exception_InvalidBatchFile</title>
<polygon fill="none" stroke="#000000" points="637.8391,-736 323.8391,-736 323.8391,-700 637.8391,-700 637.8391,-736"/>
<text text-anchor="middle" x="480.8391" y="-715.2" font-family="Courier,monospace" font-size="11.00" fill="#000000">Dalenys_Api_Batch_Exception_InvalidBatchFile</text>
</g>
<!-- \\Exception -->
<g id="node18" class="node">
<title>\\Exception</title>
<ellipse fill="none" stroke="#000000" cx="129" cy="-180" rx="48.9926" ry="18"/>
<text text-anchor="middle" x="129" y="-176.3" font-family="Times,serif" font-size="14.00" fill="#c0c0c0">\Exception</text>
</g>
<!-- \\Dalenys_Api_Batch_Exception_InvalidBatchFile&#45;&gt;\\Exception -->
<g id="edge1" class="edge">
<title>\\Dalenys_Api_Batch_Exception_InvalidBatchFile&#45;&gt;\\Exception</title>
<path fill="none" stroke="#000000" d="M334.0817,-699.8964C330.4557,-697.2222 327.0268,-694.2655 323.8391,-691 170.3889,-533.8033 404.7454,-359.7259 251.8391,-202 235.2216,-184.8587 210.1501,-178.3979 186.9814,-176.5989"/>
<polygon fill="none" stroke="#000000" points="187.0183,-173.0964 176.8544,-176.087 186.6649,-180.0874 187.0183,-173.0964"/>
</g>
<!-- \\Dalenys_Api_Batch_Observer_Debug -->
<g id="node3" class="node">
<title>\\Dalenys_Api_Batch_Observer_Debug</title>
<polygon fill="none" stroke="#000000" points="597.3391,-682 364.3391,-682 364.3391,-646 597.3391,-646 597.3391,-682"/>
<text text-anchor="middle" x="480.8391" y="-661.2" font-family="Courier,monospace" font-size="11.00" fill="#000000">Dalenys_Api_Batch_Observer_Debug</text>
</g>
<!-- \\SplObserver -->
<g id="node19" class="node">
<title>\\SplObserver</title>
<ellipse fill="none" stroke="#000000" cx="129" cy="-126" rx="57.3905" ry="18"/>
<text text-anchor="middle" x="129" y="-122.3" font-family="Times,serif" font-size="14.00" fill="#c0c0c0">\SplObserver</text>
</g>
<!-- \\Dalenys_Api_Batch_Observer_Debug&#45;&gt;\\SplObserver -->
<g id="edge2" class="edge">
<title>\\Dalenys_Api_Batch_Observer_Debug&#45;&gt;\\SplObserver</title>
<path fill="none" stroke="#000000" stroke-dasharray="1,5" d="M364.0944,-660.9852C348.9997,-655.9969 334.9561,-648.3715 323.8391,-637 171.8087,-481.4894 400.2489,-311.9696 251.8391,-153 237.5612,-137.7062 216.7621,-130.0786 196.3238,-126.521"/>
<polygon fill="none" stroke="#000000" points="196.7461,-123.0458 186.3495,-125.0857 195.749,-129.9744 196.7461,-123.0458"/>
</g>
<!-- \\Dalenys_Api_Batch_Observer_Sleep -->
<g id="node4" class="node">
<title>\\Dalenys_Api_Batch_Observer_Sleep</title>
<polygon fill="none" stroke="#000000" points="597.3391,-628 364.3391,-628 364.3391,-592 597.3391,-592 597.3391,-628"/>
<text text-anchor="middle" x="480.8391" y="-607.2" font-family="Courier,monospace" font-size="11.00" fill="#000000">Dalenys_Api_Batch_Observer_Sleep</text>
</g>
<!-- \\Dalenys_Api_Batch_Observer_Sleep&#45;&gt;\\SplObserver -->
<g id="edge3" class="edge">
<title>\\Dalenys_Api_Batch_Observer_Sleep&#45;&gt;\\SplObserver</title>
<path fill="none" stroke="#000000" stroke-dasharray="1,5" d="M364.2805,-606.8016C349.1597,-601.839 335.0593,-594.2697 323.8391,-583 187.124,-445.6812 385.3564,-293.43 251.8391,-153 237.4225,-137.8369 216.5884,-130.2422 196.1608,-126.6745"/>
<polygon fill="none" stroke="#000000" points="196.5937,-123.2008 186.1952,-125.2311 195.5902,-130.1285 196.5937,-123.2008"/>
</g>
<!-- \\Dalenys_Api_Batch_Observer_FileReport -->
<g id="node5" class="node">
<title>\\Dalenys_Api_Batch_Observer_FileReport</title>
<polygon fill="none" stroke="#000000" points="613.8391,-574 347.8391,-574 347.8391,-538 613.8391,-538 613.8391,-574"/>
<text text-anchor="middle" x="480.8391" y="-553.2" font-family="Courier,monospace" font-size="11.00" fill="#000000">Dalenys_Api_Batch_Observer_FileReport</text>
</g>
<!-- \\Dalenys_Api_Batch_Observer_FileReport&#45;&gt;\\SplObserver -->
<g id="edge4" class="edge">
<title>\\Dalenys_Api_Batch_Observer_FileReport&#45;&gt;\\SplObserver</title>
<path fill="none" stroke="#000000" stroke-dasharray="1,5" d="M347.6561,-545.7188C338.9303,-541.3654 330.8469,-535.8767 323.8391,-529 202.3958,-409.8294 370.5066,-274.9351 251.8391,-153 237.3122,-138.0731 216.5557,-130.5215 196.2291,-126.9214"/>
<polygon fill="none" stroke="#000000" points="196.7185,-123.4558 186.3143,-125.4565 195.6953,-130.3806 196.7185,-123.4558"/>
</g>
<!-- \\Dalenys_Api_Renderer_Html -->
<g id="node6" class="node">
<title>\\Dalenys_Api_Renderer_Html</title>
<polygon fill="none" stroke="#000000" points="573.3391,-898 388.3391,-898 388.3391,-862 573.3391,-862 573.3391,-898"/>
<text text-anchor="middle" x="480.8391" y="-877.2" font-family="Courier,monospace" font-size="11.00" fill="#000000">Dalenys_Api_Renderer_Html</text>
</g>
<!-- \\Dalenys_Api_Renderer_Renderable -->
<g id="node15" class="node">
<title>\\Dalenys_Api_Renderer_Renderable</title>
<polygon fill="none" stroke="#000000" points="242,-898 16,-898 16,-862 242,-862 242,-898"/>
<text text-anchor="middle" x="129" y="-877.2" font-family="Courier,monospace" font-size="11.00" fill="#000000">Dalenys_Api_Renderer_Renderable</text>
</g>
<!-- \\Dalenys_Api_Renderer_Html&#45;&gt;\\Dalenys_Api_Renderer_Renderable -->
<g id="edge5" class="edge">
<title>\\Dalenys_Api_Renderer_Html&#45;&gt;\\Dalenys_Api_Renderer_Renderable</title>
<path fill="none" stroke="#000000" stroke-dasharray="1,5" d="M387.9373,-880C346.3908,-880 296.8287,-880 252.2405,-880"/>
<polygon fill="none" stroke="#000000" points="252.2149,-876.5001 242.2148,-880 252.2148,-883.5001 252.2149,-876.5001"/>
</g>
<!-- \\Dalenys_Api_Hash_Parameters -->
<g id="node7" class="node">
<title>\\Dalenys_Api_Hash_Parameters</title>
<polygon fill="none" stroke="#000000" points="580.3391,-844 381.3391,-844 381.3391,-808 580.3391,-808 580.3391,-844"/>
<text text-anchor="middle" x="480.8391" y="-823.2" font-family="Courier,monospace" font-size="11.00" fill="#000000">Dalenys_Api_Hash_Parameters</text>
</g>
<!-- \\Dalenys_Api_Hash_Hashable -->
<g id="node16" class="node">
<title>\\Dalenys_Api_Hash_Hashable</title>
<polygon fill="none" stroke="#000000" points="221.5,-844 36.5,-844 36.5,-808 221.5,-808 221.5,-844"/>
<text text-anchor="middle" x="129" y="-823.2" font-family="Courier,monospace" font-size="11.00" fill="#000000">Dalenys_Api_Hash_Hashable</text>
</g>
<!-- \\Dalenys_Api_Hash_Parameters&#45;&gt;\\Dalenys_Api_Hash_Hashable -->
<g id="edge6" class="edge">
<title>\\Dalenys_Api_Hash_Parameters&#45;&gt;\\Dalenys_Api_Hash_Hashable</title>
<path fill="none" stroke="#000000" stroke-dasharray="1,5" d="M380.9573,-826C334.3012,-826 278.8093,-826 231.7944,-826"/>
<polygon fill="none" stroke="#000000" points="231.589,-822.5001 221.5889,-826 231.5889,-829.5001 231.589,-822.5001"/>
</g>
<!-- \\Dalenys_Api_Sender_Curl -->
<g id="node8" class="node">
<title>\\Dalenys_Api_Sender_Curl</title>
<polygon fill="none" stroke="#000000" points="566.8391,-790 394.8391,-790 394.8391,-754 566.8391,-754 566.8391,-790"/>
<text text-anchor="middle" x="480.8391" y="-769.2" font-family="Courier,monospace" font-size="11.00" fill="#000000">Dalenys_Api_Sender_Curl</text>
</g>
<!-- \\Dalenys_Api_Sender_Sendable -->
<g id="node17" class="node">
<title>\\Dalenys_Api_Sender_Sendable</title>
<polygon fill="none" stroke="#000000" points="228.5,-790 29.5,-790 29.5,-754 228.5,-754 228.5,-790"/>
<text text-anchor="middle" x="129" y="-769.2" font-family="Courier,monospace" font-size="11.00" fill="#000000">Dalenys_Api_Sender_Sendable</text>
</g>
<!-- \\Dalenys_Api_Sender_Curl&#45;&gt;\\Dalenys_Api_Sender_Sendable -->
<g id="edge7" class="edge">
<title>\\Dalenys_Api_Sender_Curl&#45;&gt;\\Dalenys_Api_Sender_Sendable</title>
<path fill="none" stroke="#000000" stroke-dasharray="1,5" d="M394.7696,-772C347.7586,-772 289.0458,-772 238.77,-772"/>
<polygon fill="none" stroke="#000000" points="238.5057,-768.5001 228.5057,-772 238.5057,-775.5001 238.5057,-768.5001"/>
</g>
<!-- \\Dalenys_Api_ClientBuilder -->
<g id="node9" class="node">
<title>\\Dalenys_Api_ClientBuilder</title>
<polygon fill="none" stroke="#000000" points="573.3391,-520 388.3391,-520 388.3391,-484 573.3391,-484 573.3391,-520"/>
<text text-anchor="start" x="446.8391" y="-505.2" font-family="Courier,monospace" font-size="11.00" fill="#000000">«abstract»</text>
<text text-anchor="start" x="396.3391" y="-493.2" font-family="Courier,monospace" font-size="11.00" fill="#000000">Dalenys_Api_ClientBuilder</text>
</g>
<!-- \\Dalenys_Api_Autoloader -->
<g id="node10" class="node">
<title>\\Dalenys_Api_Autoloader</title>
<polygon fill="none" stroke="#000000" points="563.3391,-466 398.3391,-466 398.3391,-430 563.3391,-430 563.3391,-466"/>
<text text-anchor="middle" x="480.8391" y="-445.2" font-family="Courier,monospace" font-size="11.00" fill="#000000">Dalenys_Api_Autoloader</text>
</g>
<!-- \\Dalenys_Api_Test_Tools -->
<g id="node11" class="node">
<title>\\Dalenys_Api_Test_Tools</title>
<polygon fill="none" stroke="#000000" points="563.3391,-412 398.3391,-412 398.3391,-376 563.3391,-376 563.3391,-412"/>
<text text-anchor="middle" x="480.8391" y="-391.2" font-family="Courier,monospace" font-size="11.00" fill="#000000">Dalenys_Api_Test_Tools</text>
</g>
<!-- \\Dalenys_Api_Test_FCase -->
<g id="node12" class="node">
<title>\\Dalenys_Api_Test_FCase</title>
<polygon fill="none" stroke="#000000" points="563.3391,-358 398.3391,-358 398.3391,-322 563.3391,-322 563.3391,-358"/>
<text text-anchor="start" x="446.8391" y="-343.2" font-family="Courier,monospace" font-size="11.00" fill="#000000">«abstract»</text>
<text text-anchor="start" x="406.3391" y="-331.2" font-family="Courier,monospace" font-size="11.00" fill="#000000">Dalenys_Api_Test_FCase</text>
</g>
<!-- \\PHPUnit\\Framework\\TestCase -->
<g id="node20" class="node">
<title>\\PHPUnit\\Framework\\TestCase</title>
<ellipse fill="none" stroke="#000000" cx="129" cy="-72" rx="122.6784" ry="18"/>
<text text-anchor="middle" x="129" y="-68.3" font-family="Times,serif" font-size="14.00" fill="#c0c0c0">\PHPUnit\Framework\TestCase</text>
</g>
<!-- \\Dalenys_Api_Test_FCase&#45;&gt;\\PHPUnit\\Framework\\TestCase -->
<g id="edge8" class="edge">
<title>\\Dalenys_Api_Test_FCase&#45;&gt;\\PHPUnit\\Framework\\TestCase</title>
<path fill="none" stroke="#000000" d="M397.9585,-341.8882C371.6891,-338.5549 344.2141,-330.4519 323.8391,-313 247.6249,-247.7197 326.5302,-166.0177 251.8391,-99 246.933,-94.5979 241.4758,-90.8586 235.6658,-87.6869"/>
<polygon fill="none" stroke="#000000" points="236.8014,-84.3488 226.2739,-83.1564 233.7601,-90.6536 236.8014,-84.3488"/>
</g>
<!-- \\Dalenys_Api_BatchClient -->
<g id="node13" class="node">
<title>\\Dalenys_Api_BatchClient</title>
<polygon fill="none" stroke="#000000" points="566.8391,-304 394.8391,-304 394.8391,-268 566.8391,-268 566.8391,-304"/>
<text text-anchor="middle" x="480.8391" y="-283.2" font-family="Courier,monospace" font-size="11.00" fill="#000000">Dalenys_Api_BatchClient</text>
</g>
<!-- \\SplSubject -->
<g id="node21" class="node">
<title>\\SplSubject</title>
<ellipse fill="none" stroke="#000000" cx="129" cy="-18" rx="51.1914" ry="18"/>
<text text-anchor="middle" x="129" y="-14.3" font-family="Times,serif" font-size="14.00" fill="#c0c0c0">\SplSubject</text>
</g>
<!-- \\Dalenys_Api_BatchClient&#45;&gt;\\SplSubject -->
<g id="edge9" class="edge">
<title>\\Dalenys_Api_BatchClient&#45;&gt;\\SplSubject</title>
<path fill="none" stroke="#000000" stroke-dasharray="1,5" d="M394.7031,-287.4512C369.4352,-283.8707 343.3739,-275.7322 323.8391,-259 247.6249,-193.7197 326.5302,-112.0177 251.8391,-45 235.2133,-30.0823 212.2596,-22.7755 190.6902,-19.379"/>
<polygon fill="none" stroke="#000000" points="190.9489,-15.8829 180.577,-18.0448 190.0333,-22.8228 190.9489,-15.8829"/>
</g>
<!-- \\Dalenys_Api_FormClient -->
<g id="node14" class="node">
<title>\\Dalenys_Api_FormClient</title>
<polygon fill="none" stroke="#000000" points="563.3391,-250 398.3391,-250 398.3391,-214 563.3391,-214 563.3391,-250"/>
<text text-anchor="middle" x="480.8391" y="-229.2" font-family="Courier,monospace" font-size="11.00" fill="#000000">Dalenys_Api_FormClient</text>
</g>
</g>
</svg>
